# xmcd
# Track frame offsets:
# 150
# 11655
# 25072
# 36475
# 47702
# 58987
# 72507
# 84487
# 95342
# 108610
# 118541
# 130707
# 147546
# 157934
# 167960
# 180257
# 192004
# 204359
# 215861
# 227659
# 238252
# 250810
# 264806
# 278303
# 288193
# 303170
# 312463
#
# Disc length: 4339 seconds
# Revision: 0
# Processed by: cddbd v1.4PL0 Copyright (c) Steve Scherf et al.
# Submitted via: VisiTrax 2.9.5.180 - For more info visit www.synapsa.com
#
DISCID=7e10f11b
DTITLE=Little Jimmy Dickens - Songs I love to sing
DYEAR=1900
DGENRE=
TTITLE0=Take an old tater and wait
TTITLE1=I'm so lonesome
TTITLE2=I love Lucy Brown
TTITLE3=I'm little but I'm loud
TTITLE4=I can't help it
TTITLE5=My hearts bouquet
TTITLE6=There'll be no teradrops tonight
TTITLE7=A sleeping at the floor of the bed
TTITLE8=Another bridge to burn
TTITLE9=May the bird of paradise fly up your nose
TTITLE10=Life turned her that way
TTITLE11=We could
TTITLE12=Hillbilly fever
TTITLE13=You wouldn't cross the street
TTITLE14=Release me
TTITLE15=Wabash cannon ball
TTITLE16=Making believe
TTITLE17=Country boy
TTITLE18=Someday you'll call me name
TTITLE19=I'll sit this one out
TTITLE20=I learned over backwards for you
TTITLE21=Can you built your house
TTITLE22=Violet and the rose
TTITLE23=Out behind the barn
TTITLE24=When you're sixteen
TTITLE25=He stands real tall
TTITLE26=She's not forgotten yet
EXTD=
EXTT0=
EXTT1=
EXTT2=
EXTT3=
EXTT4=
EXTT5=
EXTT6=
EXTT7=
EXTT8=
EXTT9=
EXTT10=
EXTT11=
EXTT12=
EXTT13=
EXTT14=
EXTT15=
EXTT16=
EXTT17=
EXTT18=
EXTT19=
EXTT20=
EXTT21=
EXTT22=
EXTT23=
EXTT24=
EXTT25=
EXTT26=
PLAYORDER=
